<svg width="190" height="25" viewBox="0 0 190 25" fill="none" xmlns="http://www.w3.org/2000/svg">
<path d="M12.5425 7.31619L11.8145 13.1402H15.5845V14.1802H11.6845L11.0605 19.3282H10.0205L10.6445 14.1802H4.9505L4.3005 19.3282H3.2605L3.8845 14.1802H0.140503V13.1402H4.0145L4.7425 7.31619H0.946503V6.27619H4.8725L5.4965 1.12819H6.5625L5.9125 6.27619H11.6325L12.2565 1.12819H13.2965L12.6725 6.27619H16.4165V7.31619H12.5425ZM11.5025 7.31619H5.7825L5.0805 13.1402H10.7745L11.5025 7.31619Z" fill="#07324A"/>
<path d="M20.4317 1.12819H27.6337C29.523 1.12819 31.1957 1.51819 32.6517 2.29819C34.125 3.07819 35.269 4.16153 36.0837 5.54819C36.8983 6.91753 37.3057 8.47753 37.3057 10.2282C37.3057 11.9789 36.8983 13.5475 36.0837 14.9342C35.269 16.3035 34.125 17.3782 32.6517 18.1582C31.1957 18.9382 29.523 19.3282 27.6337 19.3282H20.4317V1.12819ZM27.5297 18.1322C29.211 18.1322 30.693 17.8029 31.9757 17.1442C33.2583 16.4682 34.2463 15.5322 34.9397 14.3362C35.633 13.1402 35.9797 11.7709 35.9797 10.2282C35.9797 8.68553 35.633 7.3162 34.9397 6.12019C34.2463 4.92419 33.2583 3.99686 31.9757 3.33819C30.693 2.66219 29.211 2.32419 27.5297 2.32419H21.7577V18.1322H27.5297Z" fill="#07324A"/>
<path d="M52.9621 12.8542H41.2881C41.3228 13.9115 41.5915 14.8562 42.0941 15.6882C42.5968 16.5029 43.2728 17.1355 44.1221 17.5862C44.9888 18.0369 45.9595 18.2622 47.0341 18.2622C47.9181 18.2622 48.7328 18.1062 49.4781 17.7942C50.2408 17.4649 50.8735 16.9882 51.3761 16.3642L52.1301 17.2222C51.5408 17.9329 50.7955 18.4789 49.8941 18.8602C49.0101 19.2415 48.0481 19.4322 47.0081 19.4322C45.6561 19.4322 44.4515 19.1375 43.3941 18.5482C42.3368 17.9589 41.5048 17.1442 40.8981 16.1042C40.3088 15.0642 40.0141 13.8769 40.0141 12.5422C40.0141 11.2249 40.2915 10.0462 40.8461 9.0062C41.4181 7.94886 42.1981 7.12553 43.1861 6.53619C44.1741 5.94686 45.2835 5.65219 46.5141 5.65219C47.7448 5.65219 48.8455 5.94686 49.8161 6.53619C50.8041 7.10819 51.5755 7.91419 52.1301 8.95419C52.7021 9.99419 52.9881 11.1729 52.9881 12.4902L52.9621 12.8542ZM46.5141 6.79619C45.5608 6.79619 44.7028 7.01286 43.9401 7.44619C43.1775 7.86219 42.5621 8.46019 42.0941 9.24019C41.6435 10.0029 41.3835 10.8695 41.3141 11.8402H51.7141C51.6621 10.8695 51.4021 10.0029 50.9341 9.24019C50.4661 8.47753 49.8508 7.87953 49.0881 7.44619C48.3255 7.01286 47.4675 6.79619 46.5141 6.79619Z" fill="#07324A"/>
<path d="M60.4418 19.4322C59.3498 19.4322 58.3098 19.2675 57.3218 18.9382C56.3338 18.6089 55.5625 18.1929 55.0078 17.6902L55.6058 16.6502C56.1605 17.1182 56.8711 17.5082 57.7378 17.8202C58.6218 18.1322 59.5405 18.2882 60.4938 18.2882C61.8631 18.2882 62.8685 18.0629 63.5098 17.6122C64.1685 17.1615 64.4978 16.5375 64.4978 15.7402C64.4978 15.1682 64.3158 14.7175 63.9518 14.3882C63.6051 14.0589 63.1718 13.8162 62.6518 13.6602C62.1318 13.5042 61.4125 13.3395 60.4938 13.1662C59.4191 12.9755 58.5525 12.7675 57.8938 12.5422C57.2351 12.3169 56.6718 11.9529 56.2038 11.4502C55.7358 10.9475 55.5018 10.2542 55.5018 9.37019C55.5018 8.29553 55.9438 7.41153 56.8278 6.71819C57.7291 6.00753 59.0031 5.65219 60.6498 5.65219C61.5165 5.65219 62.3745 5.77353 63.2238 6.01619C64.0731 6.25886 64.7665 6.57953 65.3038 6.97819L64.7058 8.01819C64.1511 7.61953 63.5185 7.31619 62.8078 7.10819C62.0971 6.90019 61.3691 6.79619 60.6238 6.79619C59.3585 6.79619 58.4051 7.03019 57.7638 7.49819C57.1225 7.96619 56.8018 8.58153 56.8018 9.3442C56.8018 9.95086 56.9838 10.4275 57.3478 10.7742C57.7118 11.1035 58.1538 11.3549 58.6738 11.5282C59.2111 11.6842 59.9565 11.8575 60.9098 12.0482C61.9671 12.2389 62.8165 12.4469 63.4578 12.6722C64.1165 12.8802 64.6711 13.2269 65.1218 13.7122C65.5725 14.1975 65.7978 14.8649 65.7978 15.7142C65.7978 16.8409 65.3298 17.7422 64.3938 18.4182C63.4578 19.0942 62.1405 19.4322 60.4418 19.4322Z" fill="#07324A"/>
<path d="M69.4258 5.7562H70.7258V19.3282H69.4258V5.7562ZM70.0758 2.45419C69.7812 2.45419 69.5298 2.35886 69.3218 2.16819C69.1138 1.96019 69.0098 1.70886 69.0098 1.41419C69.0098 1.11953 69.1138 0.868194 69.3218 0.660194C69.5298 0.452194 69.7812 0.348194 70.0758 0.348194C70.3705 0.348194 70.6218 0.452194 70.8298 0.660194C71.0378 0.850861 71.1418 1.09353 71.1418 1.38819C71.1418 1.68286 71.0378 1.93419 70.8298 2.14219C70.6218 2.35019 70.3705 2.45419 70.0758 2.45419Z" fill="#07324A"/>
<path d="M88.4251 5.7562V17.8722C88.4251 20.1255 87.8791 21.7895 86.7871 22.8642C85.6951 23.9389 84.0485 24.4762 81.8471 24.4762C80.5991 24.4762 79.4205 24.2855 78.3111 23.9042C77.2018 23.5229 76.3091 22.9942 75.6331 22.3182L76.3351 21.3302C77.0111 21.9542 77.8258 22.4395 78.7791 22.7862C79.7325 23.1329 80.7465 23.3062 81.8211 23.3062C83.6238 23.3062 84.9585 22.8729 85.8251 22.0062C86.6918 21.1569 87.1251 19.8309 87.1251 18.0282V15.7402C86.5705 16.7282 85.7991 17.4909 84.8111 18.0282C83.8231 18.5655 82.7138 18.8342 81.4831 18.8342C80.2178 18.8342 79.0651 18.5569 78.0251 18.0022C77.0025 17.4302 76.1965 16.6415 75.6071 15.6362C75.0178 14.6309 74.7231 13.4955 74.7231 12.2302C74.7231 10.9649 75.0178 9.82953 75.6071 8.82419C76.1965 7.81886 77.0025 7.03886 78.0251 6.48419C79.0651 5.92953 80.2178 5.65219 81.4831 5.65219C82.7311 5.65219 83.8578 5.92953 84.8631 6.48419C85.8685 7.03886 86.6398 7.81886 87.1771 8.82419V5.7562H88.4251ZM81.5871 17.6642C82.6445 17.6642 83.5978 17.4389 84.4471 16.9882C85.2965 16.5202 85.9551 15.8789 86.4231 15.0642C86.9085 14.2322 87.1511 13.2875 87.1511 12.2302C87.1511 11.1729 86.9085 10.2369 86.4231 9.42219C85.9551 8.60753 85.2965 7.97486 84.4471 7.52419C83.5978 7.05619 82.6445 6.82219 81.5871 6.82219C80.5298 6.82219 79.5765 7.05619 78.7271 7.52419C77.8951 7.97486 77.2365 8.60753 76.7511 9.42219C76.2831 10.2369 76.0491 11.1729 76.0491 12.2302C76.0491 13.2875 76.2831 14.2322 76.7511 15.0642C77.2365 15.8789 77.8951 16.5202 78.7271 16.9882C79.5765 17.4389 80.5298 17.6642 81.5871 17.6642Z" fill="#07324A"/>
<path d="M100.558 5.65219C102.256 5.65219 103.6 6.14619 104.588 7.13419C105.576 8.12219 106.07 9.54353 106.07 11.3982V19.3282H104.77V11.5022C104.77 9.97686 104.38 8.81553 103.6 8.01819C102.837 7.22086 101.762 6.82219 100.376 6.82219C98.7811 6.82219 97.5245 7.29886 96.6058 8.25219C95.6871 9.20553 95.2278 10.4882 95.2278 12.1002V19.3282H93.9278V5.7562H95.1758V8.6942C95.6438 7.74086 96.3371 6.99553 97.2558 6.45819C98.1918 5.92086 99.2924 5.65219 100.558 5.65219Z" fill="#07324A"/>
<path d="M116.804 19.6402C115.365 19.6402 113.97 19.4495 112.618 19.0682C111.283 18.6695 110.209 18.1582 109.394 17.5342L110.824 14.3622C111.604 14.9342 112.531 15.3935 113.606 15.7402C114.681 16.0869 115.755 16.2602 116.83 16.2602C118.026 16.2602 118.91 16.0869 119.482 15.7402C120.054 15.3762 120.34 14.8995 120.34 14.3102C120.34 13.8769 120.167 13.5215 119.82 13.2442C119.491 12.9495 119.057 12.7155 118.52 12.5422C118 12.3689 117.289 12.1782 116.388 11.9702C115.001 11.6409 113.866 11.3115 112.982 10.9822C112.098 10.6529 111.335 10.1242 110.694 9.39619C110.07 8.66819 109.758 7.69753 109.758 6.48419C109.758 5.42686 110.044 4.47353 110.616 3.62419C111.188 2.75753 112.046 2.07286 113.19 1.57019C114.351 1.06753 115.764 0.816195 117.428 0.816195C118.589 0.816195 119.725 0.954861 120.834 1.23219C121.943 1.50953 122.914 1.90819 123.746 2.42819L122.446 5.62619C120.765 4.67286 119.083 4.19619 117.402 4.19619C116.223 4.19619 115.348 4.38686 114.776 4.76819C114.221 5.14953 113.944 5.65219 113.944 6.27619C113.944 6.90019 114.265 7.3682 114.906 7.68019C115.565 7.97486 116.561 8.26953 117.896 8.56419C119.283 8.89353 120.418 9.22286 121.302 9.5522C122.186 9.88153 122.94 10.4015 123.564 11.1122C124.205 11.8229 124.526 12.7849 124.526 13.9982C124.526 15.0382 124.231 15.9915 123.642 16.8582C123.07 17.7075 122.203 18.3835 121.042 18.8862C119.881 19.3889 118.468 19.6402 116.804 19.6402Z" fill="#07324A"/>
<path d="M135.62 5.1322C137.353 5.1322 138.749 5.65219 139.806 6.69219C140.881 7.73219 141.418 9.27486 141.418 11.3202V19.3282H137.362V11.9442C137.362 10.8349 137.119 10.0115 136.634 9.47419C136.149 8.91953 135.447 8.64219 134.528 8.64219C133.505 8.64219 132.691 8.96286 132.084 9.60419C131.477 10.2282 131.174 11.1642 131.174 12.4122V19.3282H127.118V0.0361938H131.174V6.79619C131.711 6.25886 132.361 5.85153 133.124 5.57419C133.887 5.27953 134.719 5.1322 135.62 5.1322Z" fill="#07324A"/>
<path d="M151.903 19.5362C150.43 19.5362 149.104 19.2329 147.925 18.6262C146.764 18.0022 145.854 17.1442 145.195 16.0522C144.536 14.9602 144.207 13.7209 144.207 12.3342C144.207 10.9475 144.536 9.70819 145.195 8.61619C145.854 7.52419 146.764 6.67486 147.925 6.06819C149.104 5.44419 150.43 5.1322 151.903 5.1322C153.376 5.1322 154.694 5.44419 155.855 6.06819C157.016 6.67486 157.926 7.52419 158.585 8.61619C159.244 9.70819 159.573 10.9475 159.573 12.3342C159.573 13.7209 159.244 14.9602 158.585 16.0522C157.926 17.1442 157.016 18.0022 155.855 18.6262C154.694 19.2329 153.376 19.5362 151.903 19.5362ZM151.903 16.2082C152.943 16.2082 153.792 15.8615 154.451 15.1682C155.127 14.4575 155.465 13.5129 155.465 12.3342C155.465 11.1555 155.127 10.2195 154.451 9.5262C153.792 8.81553 152.943 8.4602 151.903 8.4602C150.863 8.4602 150.005 8.81553 149.329 9.5262C148.653 10.2195 148.315 11.1555 148.315 12.3342C148.315 13.5129 148.653 14.4575 149.329 15.1682C150.005 15.8615 150.863 16.2082 151.903 16.2082Z" fill="#07324A"/>
<path d="M171.306 18.6522C170.907 18.9469 170.413 19.1722 169.824 19.3282C169.252 19.4669 168.645 19.5362 168.004 19.5362C166.34 19.5362 165.049 19.1115 164.13 18.2622C163.229 17.4129 162.778 16.1649 162.778 14.5182V8.77219H160.62V5.65219H162.778V2.24619H166.834V5.65219H170.318V8.77219H166.834V14.4662C166.834 15.0555 166.981 15.5149 167.276 15.8442C167.588 16.1562 168.021 16.3122 168.576 16.3122C169.217 16.3122 169.763 16.1389 170.214 15.7922L171.306 18.6522Z" fill="#07324A"/>
<path d="M175.782 8.03619H176.374V2.94819H178.342V2.43619H173.814V2.94819H175.782V8.03619ZM184.616 2.43619L182.208 6.58819L179.776 2.43619H179.288V8.03619H179.856V3.58019L182.056 7.32419H182.336L184.536 3.55619V8.03619H185.104V2.43619H184.616Z" fill="#07324A"/>
</svg>
