<svg width="29" height="29" viewBox="0 0 29 29" fill="none" xmlns="http://www.w3.org/2000/svg">
<path d="M16.2047 0.42424V2.35268C18.1121 2.35268 19.899 2.83479 21.5655 3.799C23.1516 4.74314 24.4165 6.00867 25.3602 7.59561C26.3239 9.26291 26.8058 11.0507 26.8058 12.9591H28.7332C28.7332 10.6891 28.161 8.57992 27.0166 6.6314C25.9123 4.74314 24.4165 3.24659 22.5292 2.14175C20.5817 0.996745 18.4735 0.42424 16.2047 0.42424ZM6.23617 3.3169C5.69408 3.3169 5.22225 3.48764 4.8207 3.82914L1.71869 6.99298L1.80904 6.93271C1.3071 7.35456 0.975821 7.87685 0.815199 8.49957C0.674655 9.12229 0.714811 9.72493 0.935665 10.3075C1.49784 11.8743 2.25075 13.4814 3.1944 15.1286C4.51953 17.3985 6.09563 19.4374 7.9227 21.2453C10.854 24.1983 14.4981 26.5284 18.855 28.2359H18.8851C19.4674 28.4368 20.0496 28.477 20.6319 28.3564C21.2342 28.2359 21.7663 27.9748 22.228 27.573L25.2698 24.5297C25.6714 24.1279 25.8721 23.6358 25.8721 23.0532C25.8721 22.4506 25.6714 21.9484 25.2698 21.5467L21.3246 17.5693C20.923 17.1675 20.4211 16.9666 19.8187 16.9666C19.2164 16.9666 18.7145 17.1675 18.3129 17.5693L16.4156 19.4977C14.8897 18.7745 13.5645 17.8806 12.4402 16.816C11.3158 15.7312 10.4224 14.4155 9.75981 12.8687L11.6873 10.9402C12.1089 10.4983 12.3197 9.97603 12.3197 9.37339C12.3197 8.75067 12.0788 8.24847 11.5969 7.8668L11.6873 7.9572L7.65165 3.82914C7.2501 3.48764 6.77827 3.3169 6.23617 3.3169ZM16.2047 4.28111V6.20955C17.4295 6.20955 18.5538 6.51087 19.5778 7.11351C20.6218 7.71614 21.445 8.53975 22.0473 9.58432C22.6497 10.6088 22.9508 11.7337 22.9508 12.9591H24.8783C24.8783 11.3922 24.4868 9.93585 23.7038 8.58996C22.9207 7.28425 21.8767 6.23968 20.5716 5.45626C19.2264 4.67283 17.7708 4.28111 16.2047 4.28111ZM6.23617 5.24533C6.29641 5.24533 6.36668 5.27546 6.44699 5.33573L10.3923 9.37339C10.4123 9.45374 10.3923 9.52405 10.332 9.58432L7.47095 12.4167L7.68177 13.0193L8.07328 13.863C8.39452 14.546 8.76596 15.2089 9.18759 15.8517C9.76985 16.7557 10.4123 17.5291 11.115 18.1719C12.0587 19.0959 13.1931 19.9396 14.5182 20.703C15.1808 21.0846 15.743 21.3659 16.2047 21.5467L16.8071 21.8178L19.7284 18.8951C19.7685 18.8549 19.7986 18.8348 19.8187 18.8348C19.8388 18.8348 19.8689 18.8549 19.9091 18.8951L23.9748 22.9628C24.015 23.003 24.035 23.0332 24.035 23.0532C24.035 23.0532 24.015 23.0733 23.9748 23.1135L20.9632 26.0966C20.5214 26.4782 20.0396 26.5787 19.5176 26.3979C15.4217 24.8109 12.0085 22.6414 9.27794 19.8894C7.59142 18.202 6.11571 16.2836 4.85081 14.1342C3.94732 12.5875 3.2446 11.0909 2.74266 9.64458V9.61445C2.66235 9.43366 2.65231 9.22273 2.71254 8.98168C2.77277 8.72054 2.8832 8.51966 3.04382 8.37904L6.02536 5.33573C6.08559 5.27546 6.15586 5.24533 6.23617 5.24533ZM16.2047 8.13799V10.0664C17.0078 10.0664 17.6905 10.3477 18.2527 10.9101C18.8148 11.4726 19.0959 12.1556 19.0959 12.9591H21.0234C21.0234 12.0953 20.8025 11.2918 20.3608 10.5485C19.9392 9.80528 19.3569 9.22273 18.6141 8.80089C17.8712 8.35895 17.0681 8.13799 16.2047 8.13799Z" fill="black"/>
</svg>
