<svg width="210" height="33" viewBox="0 0 210 33" fill="none" xmlns="http://www.w3.org/2000/svg">
<path d="M208.827 3.92931C208.405 3.54063 207.847 3.32864 207.27 3.33791C206.685 3.32487 206.117 3.53689 205.686 3.92931C205.467 4.13487 205.295 4.38471 205.182 4.66183C205.069 4.93894 205.018 5.23683 205.032 5.53519C205.018 5.83159 205.069 6.12757 205.181 6.40254C205.294 6.67752 205.467 6.92489 205.686 7.12743C206.117 7.51985 206.685 7.73187 207.27 7.71883C207.847 7.7281 208.405 7.51611 208.827 7.12743C209.047 6.9253 209.22 6.67812 209.334 6.40313C209.448 6.12813 209.5 5.83193 209.485 5.53519C209.499 5.23648 209.447 4.93839 209.334 4.66125C209.22 4.38412 209.047 4.13446 208.827 3.92931Z" fill="#07324A"/>
<path d="M209.061 10.1698H205.446V25.6117H209.061V10.1698Z" fill="#07324A"/>
<path d="M189.895 25.6157H193.514V13.153C193.754 13.1166 194.122 13.0666 194.62 13.0075C195.096 12.9489 195.576 12.9185 196.056 12.9165C196.589 12.9041 197.12 12.9889 197.622 13.1667C198.037 13.3241 198.392 13.6036 198.64 13.9672C198.919 14.3968 199.107 14.8781 199.193 15.3817C199.313 16.0788 199.368 16.7852 199.358 17.4922V25.6157H202.973V16.9328C202.981 15.9644 202.876 14.9983 202.66 14.0536C202.478 13.2351 202.11 12.4682 201.583 11.8112C201.04 11.1621 200.335 10.6636 199.538 10.3648C198.507 9.98837 197.413 9.8123 196.314 9.84629C195.081 9.83977 193.849 9.9295 192.63 10.1147C191.713 10.2509 190.804 10.4376 189.908 10.6741L189.895 25.6157Z" fill="#07324A"/>
<path d="M185.653 11.8301C184.449 10.5111 182.773 9.85002 180.624 9.84698C179.701 9.84834 178.786 10.0244 177.93 10.3655C177.052 10.7077 176.259 11.232 175.604 11.9029C174.888 12.6374 174.332 13.5088 173.969 14.4636C173.539 15.6033 173.331 16.8134 173.357 18.0296C173.341 19.1081 173.497 20.1824 173.817 21.2135C174.112 22.1563 174.612 23.0241 175.282 23.7561C175.978 24.5001 176.839 25.076 177.796 25.439C178.94 25.8661 180.157 26.0715 181.379 26.044C181.91 26.0428 182.44 26.0139 182.968 25.9575C183.484 25.8984 183.963 25.8256 184.414 25.7301C184.817 25.6578 185.216 25.5605 185.607 25.439C185.891 25.3602 186.167 25.2551 186.431 25.1252L185.971 22.2051C185.417 22.4253 184.843 22.5943 184.257 22.71C183.465 22.8728 182.658 22.9506 181.849 22.9419C180.357 22.9419 179.21 22.6053 178.427 21.9231C178.021 21.5584 177.693 21.1169 177.463 20.6246C177.233 20.1324 177.105 19.5995 177.087 19.0576H187.403C187.426 18.8665 187.444 18.6391 187.453 18.3935C187.463 18.1479 187.453 17.9386 187.453 17.734C187.472 15.1186 186.869 13.1446 185.653 11.8301ZM177.124 16.4513C177.187 15.9972 177.296 15.5506 177.451 15.1186C177.603 14.6998 177.832 14.3127 178.128 13.977C178.434 13.6089 178.819 13.3132 179.256 13.1117C179.693 12.9101 180.169 12.8079 180.652 12.8126C181.127 12.8032 181.599 12.898 182.033 13.09C182.416 13.27 182.751 13.5346 183.014 13.8633C183.298 14.1997 183.507 14.5919 183.627 15.014C183.77 15.4674 183.841 15.94 183.838 16.4149L177.124 16.4513Z" fill="#07324A"/>
<path d="M163.35 22.8183C162.698 22.6475 162.056 22.4379 161.43 22.1906L160.803 25.1699C161.38 25.3858 161.969 25.5695 162.567 25.7202C163.655 25.9711 164.771 26.0842 165.887 26.0568C167.938 26.0568 169.518 25.6778 170.626 24.9197C171.17 24.5481 171.608 24.0446 171.899 23.4576C172.189 22.8706 172.322 22.2197 172.284 21.5675C172.297 20.9667 172.205 20.3681 172.012 19.7982C171.832 19.3022 171.541 18.8529 171.16 18.4837C170.725 18.0663 170.226 17.718 169.682 17.4512C168.973 17.0997 168.244 16.7884 167.499 16.5187C167.049 16.3684 166.608 16.1938 166.178 15.9957C165.87 15.8579 165.579 15.6886 165.307 15.4908C165.109 15.3508 164.95 15.1629 164.847 14.945C164.751 14.7318 164.704 14.5004 164.709 14.2673C164.7 14.032 164.76 13.7993 164.883 13.5974C165.006 13.3955 165.185 13.2332 165.399 13.1302C165.956 12.8627 166.572 12.7361 167.191 12.7617C167.916 12.7511 168.639 12.8259 169.346 12.9846C169.868 13.1005 170.378 13.2634 170.87 13.4713L171.529 10.5785C170.915 10.366 170.285 10.2003 169.645 10.0827C168.778 9.91468 167.895 9.83089 167.011 9.83254C165.197 9.83254 163.763 10.2419 162.71 11.0606C162.192 11.4526 161.778 11.9617 161.501 12.5452C161.225 13.1286 161.094 13.7692 161.121 14.4128C161.102 15.0441 161.22 15.6721 161.466 16.2549C161.686 16.745 162.007 17.1837 162.411 17.5421C162.838 17.9097 163.315 18.2159 163.829 18.4518C164.418 18.7345 165.023 18.9865 165.639 19.2069C166.45 19.4742 167.223 19.8409 167.941 20.2985C168.156 20.4354 168.333 20.6232 168.455 20.8449C168.577 21.0666 168.641 21.315 168.641 21.5675C168.661 21.8037 168.609 22.0402 168.493 22.2474C168.376 22.4546 168.201 22.6232 167.987 22.7319C167.324 22.9999 166.608 23.1166 165.892 23.073C165.037 23.096 164.183 23.0104 163.35 22.8183Z" fill="#07324A"/>
<path d="M157.193 11.7842C155.986 10.4606 154.315 9.80111 152.164 9.80111C151.236 9.79854 150.316 9.97467 149.456 10.3196C148.588 10.6653 147.804 11.1876 147.153 11.8525C146.446 12.5901 145.893 13.4589 145.528 14.4087C145.099 15.5504 144.893 16.7618 144.92 17.9792C144.907 19.0575 145.062 20.1314 145.38 21.1631C145.673 22.1117 146.169 22.9867 146.836 23.7284C147.529 24.4745 148.391 25.0494 149.35 25.4068C150.496 25.8329 151.714 26.0353 152.938 26.0026C153.468 26.0027 153.999 25.9754 154.526 25.9208C155.042 25.8616 155.521 25.7889 155.968 25.6933C156.373 25.6201 156.773 25.5213 157.165 25.3977C157.449 25.3231 157.723 25.2194 157.985 25.0884L157.524 22.1683C156.969 22.3867 156.394 22.5541 155.807 22.6686C155.017 22.8354 154.21 22.9147 153.403 22.9051C151.901 22.9051 150.764 22.564 149.981 21.8863C149.574 21.5196 149.247 21.0756 149.018 20.5808C148.789 20.0861 148.664 19.5508 148.65 19.0071H158.943C158.943 18.8161 158.98 18.5887 158.989 18.3431C158.998 18.0975 158.989 17.8882 158.989 17.6835C158.998 15.0864 158.399 13.0987 157.193 11.7842ZM148.664 16.3827C148.723 15.9299 148.831 15.4847 148.986 15.0546C149.141 14.6346 149.372 14.2461 149.668 13.9083C149.957 13.5657 150.319 13.2894 150.727 13.0987C151.183 12.8793 151.685 12.7716 152.192 12.7849C152.667 12.7763 153.138 12.8694 153.573 13.0578C153.956 13.2408 154.293 13.5067 154.559 13.8356C154.84 14.1742 155.048 14.5657 155.171 14.9863C155.313 15.4383 155.383 15.9094 155.378 16.3827H148.664Z" fill="#07324A"/>
<path d="M144.34 10.3786C144.16 10.3194 143.921 10.2558 143.621 10.183C143.322 10.1102 143.013 10.0556 142.7 10.0056C142.387 9.95557 142.06 9.91918 141.742 9.88734C141.425 9.85551 141.144 9.84641 140.904 9.84641C139.735 9.83665 138.568 9.94947 137.423 10.183C136.535 10.3664 135.662 10.608 134.807 10.9062V25.6113H138.404V13.2395C138.706 13.1522 139.014 13.0839 139.325 13.0349C139.744 12.9592 140.169 12.9196 140.596 12.9166C141.214 12.9098 141.831 12.9631 142.438 13.0758C142.858 13.1569 143.273 13.2617 143.681 13.3896L144.34 10.3786Z" fill="#07324A"/>
<path d="M131.997 13.4039C131.814 12.6641 131.442 11.9829 130.916 11.4256C130.391 10.8682 129.729 10.4531 128.995 10.22C128.021 9.89958 127 9.74575 125.974 9.76519C125.031 9.75865 124.089 9.83629 123.16 9.99716C122.484 10.1018 121.816 10.2538 121.161 10.452L121.622 13.3448C122.18 13.1591 122.753 13.0221 123.335 12.9354C124.096 12.8094 124.866 12.7501 125.638 12.7581C126.161 12.7411 126.683 12.8213 127.176 12.9946C127.556 13.133 127.897 13.3591 128.171 13.6541C128.419 13.9401 128.595 14.2798 128.686 14.6457C128.793 15.0309 128.846 15.4288 128.843 15.8282V16.4514C128.38 16.334 127.909 16.2488 127.434 16.1967C127.018 16.1474 126.6 16.1216 126.181 16.1193C125.353 16.1167 124.527 16.2021 123.717 16.3741C122.976 16.519 122.269 16.7981 121.631 17.1973C121.03 17.5806 120.534 18.1059 120.19 18.7256C119.817 19.4158 119.634 20.1906 119.66 20.9725C119.632 21.7748 119.789 22.5729 120.121 23.3059C120.412 23.9124 120.852 24.4376 121.401 24.8341C121.997 25.2523 122.675 25.5449 123.39 25.6938C124.235 25.8798 125.099 25.9683 125.965 25.9576C127.237 25.969 128.509 25.8838 129.769 25.7029C130.897 25.5437 131.74 25.4027 132.306 25.2799V15.8965C132.317 15.0557 132.214 14.2172 131.997 13.4039ZM128.815 22.9238C127.974 23.0643 127.121 23.1237 126.269 23.1012C125.51 23.1413 124.756 22.9711 124.09 22.61C123.556 22.2916 123.275 21.7003 123.275 20.8543C123.264 20.4737 123.372 20.0989 123.584 19.7808C123.782 19.4929 124.056 19.2634 124.376 19.1168C124.723 18.9533 125.095 18.8458 125.476 18.7984C125.878 18.7329 126.285 18.7009 126.692 18.7029C127.112 18.6975 127.531 18.7295 127.945 18.7984C128.238 18.8351 128.529 18.8913 128.815 18.9667V22.9238Z" fill="#07324A"/>
<path d="M109.916 20.9632C110.459 22.6037 110.99 24.1532 111.509 25.6117H114.457C114.877 24.702 115.306 23.668 115.741 22.5097C116.202 21.3499 116.621 20.1127 117.063 18.7936C117.505 17.4746 117.938 16.0873 118.38 14.6273C118.822 13.1672 119.246 11.6844 119.665 10.1698H115.93C115.752 10.9976 115.542 11.8891 115.299 12.8443C115.06 13.7949 114.802 14.7728 114.53 15.7644C114.259 16.7559 113.987 17.7293 113.706 18.6754C113.425 19.6214 113.153 20.4947 112.895 21.2725C112.588 20.3628 112.295 19.4274 112.016 18.4661C111.736 17.5049 111.468 16.5406 111.21 15.5733C110.961 14.6091 110.728 13.6691 110.51 12.7533C110.292 11.8376 110.092 10.9764 109.911 10.1698H107.148C106.967 10.9794 106.761 11.8406 106.531 12.7533C106.301 13.666 106.057 14.606 105.799 15.5733C105.536 16.5376 105.265 17.5019 104.974 18.4661C104.684 19.4304 104.39 20.3674 104.09 21.2725C103.809 20.4856 103.528 19.6169 103.248 18.6754C102.967 17.7338 102.7 16.7605 102.437 15.7644C102.175 14.7683 101.926 13.7949 101.686 12.8443C101.447 11.8937 101.226 10.9976 101.055 10.1698H97.2285C97.6491 11.6859 98.0774 13.1718 98.5134 14.6273C98.9493 16.0828 99.3884 17.4716 99.8305 18.7936C100.291 20.1127 100.71 21.3499 101.152 22.5097C101.594 23.6696 102.009 24.7066 102.409 25.6117H105.38C105.896 24.1562 106.417 22.6067 106.946 20.9632C107.474 19.3197 107.966 17.6307 108.424 15.8963C108.872 17.6307 109.369 19.3197 109.916 20.9632Z" fill="#07324A"/>
<path d="M86.4293 19.471C86.4177 20.3876 86.5073 21.3027 86.6964 22.2001C86.8466 22.9384 87.1612 23.6345 87.6174 24.2378C88.0782 24.828 88.6949 25.2813 89.3996 25.5478C90.2942 25.8714 91.2426 26.0257 92.195 26.0026C93.0025 26.0153 93.8079 25.9205 94.5897 25.7206C95.149 25.5736 95.6982 25.3913 96.2338 25.1748L95.6351 22.3411C95.2387 22.4901 94.8344 22.6176 94.4239 22.7232C93.853 22.8713 93.2642 22.9417 92.674 22.9324C91.7207 22.9324 91.0391 22.6686 90.643 22.1364C90.247 21.6043 90.049 20.6809 90.049 19.4392V13.1533H95.6075V10.1695H90.049V5.50281L86.4339 6.0941L86.4293 19.471Z" fill="#07324A"/>
<path d="M76.2331 4.39851C75.1801 5.52955 74.652 7.08966 74.6489 9.07884V25.6124H78.2686V13.1542H83.9469V10.1705H78.2594V9.13797C78.2553 8.67905 78.3048 8.22119 78.4068 7.77344C78.4934 7.38173 78.6664 7.01367 78.9134 6.69546C79.1668 6.38388 79.4965 6.14124 79.8712 5.99046C80.3372 5.80958 80.8352 5.72297 81.3357 5.73574C81.8234 5.73231 82.31 5.78265 82.7863 5.88584C83.1939 5.96986 83.5908 6.09799 83.9699 6.26791L84.6561 3.31598C84.1854 3.15512 83.7056 3.02147 83.2192 2.91572C82.4931 2.76089 81.7515 2.68765 81.0087 2.69739C78.878 2.70042 77.2862 3.26746 76.2331 4.39851Z" fill="#07324A"/>
<path d="M71.5817 14.5541C71.2432 13.6136 70.7205 12.7481 70.0435 12.0069C69.3808 11.2913 68.5662 10.7291 67.658 10.3604C66.6976 9.96881 65.6667 9.77383 64.6278 9.7873C63.5918 9.77291 62.5637 9.96794 61.6068 10.3604C60.704 10.7316 59.8944 11.2936 59.2351 12.0069C58.5491 12.7447 58.0199 13.6108 57.6785 14.5541C57.2975 15.6217 57.1089 16.747 57.1213 17.879C57.1106 19.0138 57.2991 20.1418 57.6785 21.213C58.0158 22.1608 58.5385 23.034 59.2167 23.7828C59.8765 24.4926 60.6819 25.0555 61.5791 25.4339C62.5436 25.8329 63.5824 26.0266 64.6278 26.0025C65.6788 26.0195 66.7219 25.8197 67.6903 25.4157C68.5931 25.0377 69.4046 24.475 70.0712 23.7646C70.7501 23.0195 71.2673 22.1449 71.5909 21.1948C71.9656 20.1228 72.1495 18.9948 72.1343 17.8608C72.1459 16.7352 71.9589 15.6162 71.5817 14.5541ZM67.437 21.5632C67.108 21.9859 66.685 22.3283 66.2007 22.5639C65.7164 22.7995 65.1838 22.9221 64.6439 22.9221C64.1041 22.9221 63.5714 22.7995 63.0871 22.5639C62.6029 22.3283 62.1799 21.9859 61.8509 21.5632C61.1831 20.6535 60.8469 19.43 60.8469 17.879C60.8469 16.328 61.1831 15.1226 61.8509 14.2402C62.1815 13.8199 62.605 13.4797 63.0891 13.2457C63.5732 13.0117 64.105 12.89 64.6439 12.89C65.1829 12.89 65.7147 13.0117 66.1988 13.2457C66.6828 13.4797 67.1064 13.8199 67.437 14.2402C68.1047 15.1272 68.4409 16.3461 68.4409 17.879C68.4409 19.4118 68.0909 20.6672 67.4232 21.5632H67.437Z" fill="#07324A"/>
<path d="M46.4604 22.6456C45.8052 22.4781 45.1608 22.2715 44.5309 22.027L43.9045 25.0063C44.4812 25.2207 45.0702 25.4014 45.6683 25.5475C46.7555 25.8025 47.8716 25.9172 48.9887 25.8887C51.0396 25.8887 52.6176 25.5096 53.7229 24.7515C54.2681 24.3808 54.7074 23.8776 54.9986 23.2905C55.2898 22.7034 55.423 22.0521 55.3853 21.3994C55.3984 20.7985 55.3065 20.2 55.1136 19.63C54.9335 19.1341 54.6423 18.6847 54.2617 18.3155C53.8258 17.8981 53.3271 17.5498 52.7834 17.283C52.0743 16.9316 51.3455 16.6203 50.6005 16.3506C50.0847 16.1732 49.6426 16.0004 49.2834 15.8366C48.9782 15.6979 48.6881 15.5287 48.4177 15.3317C48.2205 15.1906 48.0621 15.003 47.9571 14.7859C47.8615 14.5727 47.8144 14.3414 47.819 14.1082C47.8095 13.8728 47.8699 13.6399 47.9926 13.4379C48.1153 13.2359 48.295 13.0736 48.5098 12.9711C49.0668 12.7037 49.6824 12.5771 50.3012 12.6027C51.026 12.592 51.7496 12.6668 52.4564 12.8256C52.9785 12.9414 53.4888 13.1043 53.9808 13.3122L54.6347 10.4149C54.0183 10.2082 53.3872 10.047 52.7466 9.93275C51.8804 9.7645 50.9997 9.68071 50.117 9.68259C48.3025 9.68259 46.8672 10.0919 45.8111 10.9107C45.2953 11.3029 44.8822 11.8116 44.6066 12.3941C44.3309 12.9766 44.2007 13.6159 44.2269 14.2583C44.2081 14.8911 44.3258 15.5206 44.5723 16.105C44.7848 16.5916 45.0986 17.0287 45.4933 17.3876C45.9206 17.7551 46.3981 18.0613 46.9117 18.2973C47.5005 18.5803 48.1047 18.8309 48.7216 19.0478C49.5319 19.3182 50.3053 19.6863 51.0242 20.144C51.2527 20.2796 51.4413 20.4718 51.5713 20.7016C51.7014 20.9313 51.7684 21.1907 51.7656 21.4539C51.7847 21.6906 51.7323 21.9275 51.6151 22.1347C51.4979 22.342 51.3211 22.5103 51.1071 22.6183C50.4453 22.8869 49.7304 23.0036 49.0163 22.9595C48.1542 22.9643 47.2951 22.8588 46.4604 22.6456Z" fill="#07324A"/>
<path d="M36.8398 19.493V23.764C36.8398 27.189 35.5964 29.2221 34.7122 30.1318C33.7543 31.1507 31.9122 32.7017 28.0208 32.7017H24.0972V25.597H26.7083C27.0477 25.6162 27.3875 25.5689 27.7083 25.4581C28.0292 25.3473 28.3247 25.175 28.578 24.9512C28.8344 24.7034 29.0308 24.4018 29.1528 24.0687C29.2748 23.7355 29.3192 23.3796 29.2826 23.0272C29.2826 22.3722 29.2826 20.6211 29.3057 19.493H36.8398Z" fill="#7BC794"/>
<path d="M12.9943 0.531067V7.66301H10.3786C10.0377 7.64293 9.69621 7.68967 9.37374 7.80052C9.05127 7.91137 8.75419 8.08414 8.49962 8.30889C8.24301 8.55627 8.04667 8.85801 7.9254 9.19131C7.80414 9.5246 7.76113 9.88076 7.79963 10.2329C7.79963 10.8788 7.79963 12.6299 7.76739 13.7488H0.24707V9.48693C0.24707 6.06651 1.49048 4.02881 2.37468 3.11913C3.33257 2.09118 5.17465 0.531067 9.07067 0.531067H12.9943Z" fill="#7BC794"/>
<path d="M29.3427 0.531234C29.3427 0.531234 25.5572 0.36749 22.8954 1.57737C20.2336 2.78726 18.5803 4.16998 17.2862 6.97182C15.9553 9.85097 14.6567 16.096 12.9297 19.8393C11.2027 23.5827 7.82251 23.0551 7.82251 23.0551V32.7069C7.82251 32.7069 11.6126 32.8706 14.2698 31.6607C16.927 30.4508 18.2902 28.9544 19.5888 26.2708C21.3803 22.5638 22.2184 17.1376 23.9408 13.4078C24.3756 12.3712 25.1351 11.4992 26.108 10.9197C27.0809 10.3403 28.2161 10.0837 29.3473 10.1876L29.3427 0.531234Z" fill="#00AFAA"/>
</svg>
